Coordinates
version=1
nRows=32
nColumns=12
inDegrees=yes

Units are S.I. units (second, meters, Newtons, ...)
Angles are in degrees

endheader
time	SC_y	SC_z	SC_x	AC_y	AC_z	AC_x	GH_y	GH_z	GH_yy	EL_x	PS_y
       0.0               -20.9          19.21          54.13          43.85         -17.59          13.28         -82.99          36.45          26.84          121.0          86.26
 0.0007758               -20.9          19.21          54.13          43.85         -17.59          13.27         -82.98          36.45          26.84          121.0          86.26
  0.001552               -20.9          19.21          54.14          43.86         -17.59          13.27         -82.98          36.44          26.85          121.0          86.26
  0.002327               -20.9          19.21          54.14          43.86         -17.59          13.27         -82.97          36.43          26.86          121.0          86.27
  0.003103               -20.9          19.21          54.14          43.86         -17.59          13.27         -82.96          36.43          26.87          121.0          86.27
  0.003879               -20.9          19.21          54.14          43.87         -17.59          13.26         -82.96          36.42          26.87          121.0          86.27
  0.004655               -20.9          19.21          54.14          43.87         -17.59          13.26         -82.95          36.41          26.88          121.0          86.27
  0.005431               -20.9          19.21          54.15          43.88         -17.59          13.25         -82.94           36.4          26.89          121.0          86.28
  0.006206               -20.9          19.21          54.15          43.88         -17.59          13.25         -82.93          36.39           26.9          120.9          86.28
  0.006982               -20.9           19.2          54.15          43.89         -17.59          13.25         -82.92          36.38          26.91          120.9          86.28
  0.007758              -20.89           19.2          54.16           43.9         -17.59          13.24         -82.91          36.37          26.93          120.9          86.29
  0.008534              -20.89           19.2          54.16           43.9         -17.58          13.24          -82.9          36.36          26.94          120.9          86.29
   0.00931              -20.89           19.2          54.16          43.91         -17.58          13.23         -82.88          36.35          26.95          120.9           86.3
   0.01009              -20.89           19.2          54.17          43.92         -17.58          13.22         -82.87          36.33          26.97          120.9           86.3
   0.01086              -20.89           19.2          54.17          43.92         -17.58          13.22         -82.86          36.32          26.98          120.9          86.31
   0.01164              -20.89           19.2          54.18          43.93         -17.58          13.21         -82.84           36.3           27.0          120.9          86.31
   0.01241              -20.89           19.2          54.18          43.94         -17.58           13.2         -82.82          36.29          27.02          120.8          86.32
   0.01319              -20.88          19.19          54.19          43.95         -17.58          13.19          -82.8          36.27          27.04          120.8          86.33
   0.01396              -20.88          19.19           54.2          43.96         -17.58          13.19         -82.78          36.25          27.06          120.8          86.33
   0.01474              -20.88          19.19           54.2          43.98         -17.58          13.17         -82.76          36.22          27.09          120.8          86.34
   0.01552              -20.88          19.19          54.21          43.99         -17.58          13.16         -82.73           36.2          27.12          120.7          86.35
   0.01629              -20.87          19.19          54.22          44.01         -17.57          13.15         -82.71          36.17          27.15          120.7          86.36
   0.01707              -20.87          19.18          54.23          44.02         -17.57          13.14         -82.68          36.14          27.18          120.7          86.37
   0.01784              -20.87          19.18          54.24          44.04         -17.57          13.12         -82.64          36.11          27.22          120.6          86.39
   0.01862              -20.86          19.18          54.25          44.06         -17.57          13.11         -82.61          36.07          27.26          120.6           86.4
   0.01939              -20.86          19.17          54.26          44.08         -17.57          13.09         -82.56          36.03           27.3          120.6          86.41
   0.02017              -20.86          19.17          54.28          44.11         -17.56          13.07         -82.52          35.98          27.35          120.5          86.43
   0.02095              -20.85          19.17           54.3          44.14         -17.56          13.04         -82.46          35.93          27.41          120.5          86.45
   0.02172              -20.84          19.16          54.31          44.17         -17.56          13.02          -82.4          35.87          27.47          120.4          86.47
    0.0225              -20.84          19.15          54.33          44.21         -17.55          12.99         -82.34          35.81          27.55          120.3           86.5
   0.02327              -20.83          19.15          54.36          44.25         -17.55          12.95         -82.26          35.73          27.63          120.2          86.53
   0.02405              -20.82          19.14          54.39           44.3         -17.54          12.92         -82.17          35.64          27.73          120.2          86.56
